# xmcd
#
# Track frame offsets:
# 150
# 19148
# 35131
# 57114
# 78690
# 97082
# 116327
# 137407
# 161204
# 183294
# 204576
# 224560
#
# Disc length: 3305 seconds
#
#
# Revision: 1
# Processed by: cddbd v1.5.1PL0 Copyright (c) Steve Scherf et al.
# Submitted via: FreeRIP 2.94 
#
DISCID=ad0ce70c
DTITLE=Larry Taylor - They Were In This House
DYEAR=2004
DGENRE=Blues
TTITLE0=Jody Got Your Girl and Gone, Part 1
TTITLE1=Jody Got Your Girl and Gone, Part 2
TTITLE2=Blues, Hard Luck and Trouble
TTITLE3=I Didn't Mean To Hurt Your Feelings
TTITLE4=Killing Floor
TTITLE5=Tell Me Baby Part 1
TTITLE6=Tell Me Baby Part 2
TTITLE7=Signals of Love
TTITLE8=Last $2
TTITLE9=Don't Make Me Pay For His Mistake
TTITLE10=Green Line Blues
TTITLE11=Knocking At Your Door
EXTD=as heard on\nBluesfestRadio.com
EXTT0=
EXTT1=
EXTT2=
EXTT3=
EXTT4=
EXTT5=
EXTT6=
EXTT7=
EXTT8=
EXTT9=
EXTT10=
EXTT11=
PLAYORDER=
